{
  "accessors": [
    {
      "bufferView": 2,
      "componentType": 5126,
      "count": 8528,
      "max": [
        0.16603899002075195,
        0.80129629373550415,
        0.7632325291633606
      ],
      "min": [
        -0.13768923282623291,
        -0.80129629373550415,
        -1.0354541540145874
      ],
      "type": "VEC3"
    },
    {
      "bufferView": 2,
      "byteOffset": 102336,
      "componentType": 5126,
      "count": 8528,
      "max": [
        0.9993935227394104,
        0.99982321262359619,
        0.98696321249008179
      ],
      "min": [
        -0.99920636415481567,
        -0.99982321262359619,
        -1
      ],
      "type": "VEC3"
    },
    {
      "bufferView": 1,
      "componentType": 5126,
      "count": 8528,
      "max": [
        0.93437844514846802,
        0.9998314380645752
      ],
      "min": [
        0.00016858187154866755,
        0.00016858187154866755
      ],
      "type": "VEC2"
    },
    {
      "bufferView": 1,
      "byteOffset": 68224,
      "componentType": 5126,
      "count": 8528,
      "max": [
        0,
        0
      ],
      "min": [
        0,
        0
      ],
      "type": "VEC2"
    },
    {
      "bufferView": 0,
      "componentType": 5125,
      "count": 12792,
      "max": [
        8527
      ],
      "min": [
        0
      ],
      "type": "SCALAR"
    }
  ],
  "asset": {
    "extras": {
      "author": "Diego.Gonzalez2 (https://sketchfab.com/Diego.Gonzalez2)",
      "license": "CC-BY-4.0 (http://creativecommons.org/licenses/by/4.0/)",
      "source": "https://sketchfab.com/3d-models/male-body-base-mesh-5196847b14934b97a264248d1f6c4431",
      "title": "Male Body Base Mesh"
    },
    "generator": "Sketchfab-7.61.0",
    "version": "2.0"
  },
  "bufferViews": [
    {
      "buffer": 0,
      "byteLength": 51168,
      "byteOffset": 0,
      "name": "floatBufferViews",
      "target": 34963
    },
    {
      "buffer": 0,
      "byteLength": 136448,
      "byteOffset": 51168,
      "byteStride": 8,
      "name": "floatBufferViews",
      "target": 34962
    },
    {
      "buffer": 0,
      "byteLength": 204672,
      "byteOffset": 187616,
      "byteStride": 12,
      "name": "floatBufferViews",
      "target": 34962
    }
  ],
  "buffers": [
    {
      "byteLength": 392288,
      "uri": "scene.bin"
    }
  ],
  "materials": [
    {
      "doubleSided": true,
      "emissiveFactor": [
        0,
        0,
        0
      ],
      "name": "lambert1",
      "pbrMetallicRoughness": {
        "baseColorFactor": [
          0.43548934570143405,
          0.43121785548926894,
          0.43121785548926894,
          1
        ],
        "metallicFactor": 0,
        "roughnessFactor": 0.59999999999999998
      }
    }
  ],
  "meshes": [
    {
      "name": "Cube_lambert1_0",
      "primitives": [
        {
          "attributes": {
            "NORMAL": 1,
            "POSITION": 0,
            "TEXCOORD_0": 2,
            "TEXCOORD_1": 3
          },
          "indices": 4,
          "material": 0,
          "mode": 4
        }
      ]
    }
  ],
  "nodes": [
    {
      "children": [
        1
      ],
      "name": "RootNode (gltf orientation matrix)",
      "rotation": [
        -0.70710678118654746,
        -0,
        -0,
        0.70710678118654757
      ]
    },
    {
      "children": [
        2
      ],
      "name": "RootNode (model correction matrix)"
    },
    {
      "children": [
        3
      ],
      "matrix": [
        1,
        0,
        0,
        0,
        0,
        0,
        1,
        0,
        0,
        -1,
        0,
        0,
        0,
        0,
        0,
        1
      ],
      "name": "b84b6a1f1fbf4d828fcdede826874da8.fbx"
    },
    {
      "children": [
        4
      ],
      "name": "RootNode"
    },
    {
      "children": [
        5
      ],
      "matrix": [
        100,
        0,
        0,
        0,
        0,
        -1.6292067939183141e-05,
        -99.999999999998678,
        0,
        0,
        99.999999999998678,
        -1.6292067939183141e-05,
        0,
        0,
        0,
        0,
        1
      ],
      "name": "Cube"
    },
    {
      "mesh": 0,
      "name": "Cube_lambert1_0"
    }
  ],
  "scene": 0,
  "scenes": [
    {
      "name": "OSG_Scene",
      "nodes": [
        0
      ]
    }
  ]
}

