{
    "accessors" : [
        {
            "bufferView" : 0,
            "componentType" : 5123,
            "count" : 18,
            "max" : [
                7
            ],
            "min" : [
                0
            ],
            "type" : "SCALAR"
        },
        {
            "bufferView" : 1,
            "componentType" : 5126,
            "count" : 8,
            "max" : [
                -8.102296829223633,
                87.36221313476562,
                12.681352615356445
            ],
            "min" : [
                -15.621127128601074,
                60.05210494995117,
                8.204118728637695
            ],
            "type" : "VEC3"
        },
        {
            "bufferView" : 2,
            "componentType" : 5126,
            "count" : 8,
            "max" : [
                -0.1658070683479309,
                0.02862636186182499,
                0.9857173562049866
            ],
            "min" : [
                -0.17603075504302979,
                -0.23676259815692902,
                0.9562364816665649
            ],
            "type" : "VEC3"
        },
        {
            "bufferView" : 3,
            "componentType" : 5126,
            "count" : 8,
            "max" : [
                -0.9524036049842834,
                -0.17130804061889648,
                -0.15834420919418335,
                1.0
            ],
            "min" : [
                -0.9723677039146423,
                -0.21182486414909363,
                -0.22274555265903473,
                1.0
            ],
            "type" : "VEC4"
        },
        {
            "bufferView" : 4,
            "componentType" : 5126,
            "count" : 8,
            "max" : [
                0.6536887884140015,
                0.4465545415878296
            ],
            "min" : [
                0.5833354592323303,
                0.3017262816429138
            ],
            "type" : "VEC2"
        },
        {
            "bufferView" : 5,
            "componentType" : 5123,
            "count" : 18,
            "max" : [
                7
            ],
            "min" : [
                0
            ],
            "type" : "SCALAR"
        },
        {
            "bufferView" : 6,
            "componentType" : 5126,
            "count" : 8,
            "max" : [
                16.927759170532227,
                85.57002258300781,
                -1.6695387363433838
            ],
            "min" : [
                11.373611450195312,
                62.134361267089844,
                -5.535211563110352
            ],
            "type" : "VEC3"
        },
        {
            "bufferView" : 7,
            "componentType" : 5126,
            "count" : 8,
            "max" : [
                0.4846949577331543,
                0.036835841834545135,
                -0.87005215883255
            ],
            "min" : [
                0.4066591262817383,
                -0.08975493907928467,
                -0.9128085970878601
            ],
            "type" : "VEC3"
        },
        {
            "bufferView" : 8,
            "componentType" : 5126,
            "count" : 8,
            "max" : [
                -0.8676997423171997,
                -0.16746875643730164,
                -0.4044983685016632,
                1.0
            ],
            "min" : [
                -0.8911492824554443,
                -0.21800081431865692,
                -0.4653807580471039,
                1.0
            ],
            "type" : "VEC4"
        },
        {
            "bufferView" : 9,
            "componentType" : 5126,
            "count" : 8,
            "max" : [
                0.7433447241783142,
                0.6730155348777771
            ],
            "min" : [
                0.705184280872345,
                0.5445314347743988
            ],
            "type" : "VEC2"
        },
        {
            "bufferView" : 10,
            "componentType" : 5123,
            "count" : 18,
            "max" : [
                7
            ],
            "min" : [
                0
            ],
            "type" : "SCALAR"
        },
        {
            "bufferView" : 11,
            "componentType" : 5126,
            "count" : 8,
            "max" : [
                -6.322152137756348,
                83.6006851196289,
                -1.983791470527649
            ],
            "min" : [
                -13.413429260253906,
                61.391475677490234,
                -5.535211563110352
            ],
            "type" : "VEC3"
        },
        {
            "bufferView" : 12,
            "componentType" : 5126,
            "count" : 8,
            "max" : [
                0.3408307135105133,
                0.012085329741239548,
                -0.940031111240387
            ],
            "min" : [
                0.27564316987991333,
                -0.17212438583374023,
                -0.9475081562995911
            ],
            "type" : "VEC3"
        },
        {
            "bufferView" : 13,
            "componentType" : 5126,
            "count" : 8,
            "max" : [
                0.9421603679656982,
                -0.12617312371730804,
                0.33593514561653137,
                1.0
            ],
            "min" : [
                0.9251995086669922,
                -0.22274817526340485,
                0.30379167199134827,
                1.0
            ],
            "type" : "VEC4"
        },
        {
            "bufferView" : 14,
            "componentType" : 5126,
            "count" : 8,
            "max" : [
                0.7706205248832703,
                0.45162391662597656
            ],
            "min" : [
                0.7355976104736328,
                0.3290613293647766
            ],
            "type" : "VEC2"
        },
        {
            "bufferView" : 15,
            "componentType" : 5123,
            "count" : 18,
            "max" : [
                7
            ],
            "min" : [
                0
            ],
            "type" : "SCALAR"
        },
        {
            "bufferView" : 16,
            "componentType" : 5126,
            "count" : 8,
            "max" : [
                15.621127128601074,
                87.36221313476562,
                12.681352615356445
            ],
            "min" : [
                8.102296829223633,
                60.05210494995117,
                8.204118728637695
            ],
            "type" : "VEC3"
        },
        {
            "bufferView" : 17,
            "componentType" : 5126,
            "count" : 8,
            "max" : [
                0.17603075504302979,
                0.02862636186182499,
                0.9857173562049866
            ],
            "min" : [
                0.1658070683479309,
                -0.23676259815692902,
                0.9562364816665649
            ],
            "type" : "VEC3"
        },
        {
            "bufferView" : 18,
            "componentType" : 5126,
            "count" : 8,
            "max" : [
                0.9723711609840393,
                -0.17128655314445496,
                -0.1583453267812729,
                1.0
            ],
            "min" : [
                0.9524061679840088,
                -0.2118162214756012,
                -0.22274361550807953,
                1.0
            ],
            "type" : "VEC4"
        },
        {
            "bufferView" : 19,
            "componentType" : 5126,
            "count" : 8,
            "max" : [
                0.6536877751350403,
                0.6982698142528534
            ],
            "min" : [
                0.5833362340927124,
                0.5534409284591675
            ],
            "type" : "VEC2"
        },
        {
            "bufferView" : 20,
            "componentType" : 5123,
            "count" : 9516,
            "max" : [
                1661
            ],
            "min" : [
                0
            ],
            "type" : "SCALAR"
        },
        {
            "bufferView" : 21,
            "componentType" : 5126,
            "count" : 1662,
            "max" : [
                8.724205017089844,
                179.4088134765625,
                15.222776412963867
            ],
            "min" : [
                -8.724205017089844,
                157.6709442138672,
                -5.612724304199219
            ],
            "type" : "VEC3"
        },
        {
            "bufferView" : 22,
            "componentType" : 5126,
            "count" : 1662,
            "max" : [
                0.999969482421875,
                0.9968565702438354,
                1.0
            ],
            "min" : [
                -0.999969482421875,
                -0.999847412109375,
                -0.9987792372703552
            ],
            "type" : "VEC3"
        },
        {
            "bufferView" : 23,
            "componentType" : 5126,
            "count" : 1662,
            "max" : [
                0.999998152256012,
                0.5009916424751282,
                0.993849515914917,
                1.0
            ],
            "min" : [
                -0.9999982118606567,
                -0.9999698996543884,
                -0.9998509883880615,
                1.0
            ],
            "type" : "VEC4"
        },
        {
            "bufferView" : 24,
            "componentType" : 5126,
            "count" : 1662,
            "max" : [
                0.5826892852783203,
                0.9999095835373737
            ],
            "min" : [
                9.04164626263082e-05,
                9.047985076904297e-05
            ],
            "type" : "VEC2"
        },
        {
            "bufferView" : 25,
            "componentType" : 5123,
            "count" : 18288,
            "max" : [
                3590
            ],
            "min" : [
                0
            ],
            "type" : "SCALAR"
        },
        {
            "bufferView" : 26,
            "componentType" : 5126,
            "count" : 3591,
            "max" : [
                86.1909408569336,
                163.74609375,
                17.99454116821289
            ],
            "min" : [
                -86.1909408569336,
                -0.4627448320388794,
                -11.37922477722168
            ],
            "type" : "VEC3"
        },
        {
            "bufferView" : 27,
            "componentType" : 5126,
            "count" : 3591,
            "max" : [
                0.999969482421875,
                0.999908447265625,
                0.999969482421875
            ],
            "min" : [
                -0.999969482421875,
                -0.99993896484375,
                -0.99993896484375
            ],
            "type" : "VEC3"
        },
        {
            "bufferView" : 28,
            "componentType" : 5126,
            "count" : 3591,
            "max" : [
                0.9997340440750122,
                0.9999973773956299,
                0.9889050722122192,
                1.0
            ],
            "min" : [
                -0.9997340440750122,
                -0.998491644859314,
                -0.9999521970748901,
                1.0
            ],
            "type" : "VEC4"
        },
        {
            "bufferView" : 29,
            "componentType" : 5126,
            "count" : 3591,
            "max" : [
                0.9454151391983032,
                0.9997203108214308
            ],
            "min" : [
                0.00027968917856924236,
                0.0002797245979309082
            ],
            "type" : "VEC2"
        }
    ],
    "asset" : {
        "generator" : "Khronos Blender glTF 2.0 exporter",
        "version" : "2.0"
    },
    "bufferViews" : [
        {
            "buffer" : 0,
            "byteLength" : 36,
            "byteOffset" : 0,
            "target" : 34963
        },
        {
            "buffer" : 0,
            "byteLength" : 96,
            "byteOffset" : 36,
            "target" : 34962
        },
        {
            "buffer" : 0,
            "byteLength" : 96,
            "byteOffset" : 132,
            "target" : 34962
        },
        {
            "buffer" : 0,
            "byteLength" : 128,
            "byteOffset" : 228,
            "target" : 34962
        },
        {
            "buffer" : 0,
            "byteLength" : 64,
            "byteOffset" : 356,
            "target" : 34962
        },
        {
            "buffer" : 0,
            "byteLength" : 36,
            "byteOffset" : 420,
            "target" : 34963
        },
        {
            "buffer" : 0,
            "byteLength" : 96,
            "byteOffset" : 456,
            "target" : 34962
        },
        {
            "buffer" : 0,
            "byteLength" : 96,
            "byteOffset" : 552,
            "target" : 34962
        },
        {
            "buffer" : 0,
            "byteLength" : 128,
            "byteOffset" : 648,
            "target" : 34962
        },
        {
            "buffer" : 0,
            "byteLength" : 64,
            "byteOffset" : 776,
            "target" : 34962
        },
        {
            "buffer" : 0,
            "byteLength" : 36,
            "byteOffset" : 840,
            "target" : 34963
        },
        {
            "buffer" : 0,
            "byteLength" : 96,
            "byteOffset" : 876,
            "target" : 34962
        },
        {
            "buffer" : 0,
            "byteLength" : 96,
            "byteOffset" : 972,
            "target" : 34962
        },
        {
            "buffer" : 0,
            "byteLength" : 128,
            "byteOffset" : 1068,
            "target" : 34962
        },
        {
            "buffer" : 0,
            "byteLength" : 64,
            "byteOffset" : 1196,
            "target" : 34962
        },
        {
            "buffer" : 0,
            "byteLength" : 36,
            "byteOffset" : 1260,
            "target" : 34963
        },
        {
            "buffer" : 0,
            "byteLength" : 96,
            "byteOffset" : 1296,
            "target" : 34962
        },
        {
            "buffer" : 0,
            "byteLength" : 96,
            "byteOffset" : 1392,
            "target" : 34962
        },
        {
            "buffer" : 0,
            "byteLength" : 128,
            "byteOffset" : 1488,
            "target" : 34962
        },
        {
            "buffer" : 0,
            "byteLength" : 64,
            "byteOffset" : 1616,
            "target" : 34962
        },
        {
            "buffer" : 0,
            "byteLength" : 19032,
            "byteOffset" : 1680,
            "target" : 34963
        },
        {
            "buffer" : 0,
            "byteLength" : 19944,
            "byteOffset" : 20712,
            "target" : 34962
        },
        {
            "buffer" : 0,
            "byteLength" : 19944,
            "byteOffset" : 40656,
            "target" : 34962
        },
        {
            "buffer" : 0,
            "byteLength" : 26592,
            "byteOffset" : 60600,
            "target" : 34962
        },
        {
            "buffer" : 0,
            "byteLength" : 13296,
            "byteOffset" : 87192,
            "target" : 34962
        },
        {
            "buffer" : 0,
            "byteLength" : 36576,
            "byteOffset" : 100488,
            "target" : 34963
        },
        {
            "buffer" : 0,
            "byteLength" : 43092,
            "byteOffset" : 137064,
            "target" : 34962
        },
        {
            "buffer" : 0,
            "byteLength" : 43092,
            "byteOffset" : 180156,
            "target" : 34962
        },
        {
            "buffer" : 0,
            "byteLength" : 57456,
            "byteOffset" : 223248,
            "target" : 34962
        },
        {
            "buffer" : 0,
            "byteLength" : 28728,
            "byteOffset" : 280704,
            "target" : 34962
        }
    ],
    "buffers" : [
        {
            "byteLength" : 309432,
            "uri" : "Person2.bin"
        }
    ],
    "materials" : [
        {
            "name" : "body",
            "pbrMetallicRoughness" : {
                "baseColorFactor" : [
                    0.6400000190734865,
                    0.6400000190734865,
                    0.6400000190734865,
                    1.0
                ],
                "metallicFactor" : 0.0
            }
        },
        {
            "name" : "head",
            "pbrMetallicRoughness" : {
                "baseColorFactor" : [
                    0.6400000190734865,
                    0.6400000190734865,
                    0.6400000190734865,
                    1.0
                ],
                "metallicFactor" : 0.0
            }
        }
    ],
    "meshes" : [
        {
            "name" : "body_low.001",
            "primitives" : [
                {
                    "attributes" : {
                        "NORMAL" : 2,
                        "POSITION" : 1,
                        "TANGENT" : 3,
                        "TEXCOORD_0" : 4
                    },
                    "indices" : 0,
                    "material" : 0
                }
            ]
        },
        {
            "name" : "body_low.004",
            "primitives" : [
                {
                    "attributes" : {
                        "NORMAL" : 7,
                        "POSITION" : 6,
                        "TANGENT" : 8,
                        "TEXCOORD_0" : 9
                    },
                    "indices" : 5,
                    "material" : 0
                }
            ]
        },
        {
            "name" : "body_low.002",
            "primitives" : [
                {
                    "attributes" : {
                        "NORMAL" : 12,
                        "POSITION" : 11,
                        "TANGENT" : 13,
                        "TEXCOORD_0" : 14
                    },
                    "indices" : 10,
                    "material" : 0
                }
            ]
        },
        {
            "name" : "body_low.003",
            "primitives" : [
                {
                    "attributes" : {
                        "NORMAL" : 17,
                        "POSITION" : 16,
                        "TANGENT" : 18,
                        "TEXCOORD_0" : 19
                    },
                    "indices" : 15,
                    "material" : 0
                }
            ]
        },
        {
            "name" : "body_low",
            "primitives" : [
                {
                    "attributes" : {
                        "NORMAL" : 22,
                        "POSITION" : 21,
                        "TANGENT" : 23,
                        "TEXCOORD_0" : 24
                    },
                    "indices" : 20,
                    "material" : 1
                },
                {
                    "attributes" : {
                        "NORMAL" : 27,
                        "POSITION" : 26,
                        "TANGENT" : 28,
                        "TEXCOORD_0" : 29
                    },
                    "indices" : 25,
                    "material" : 0
                }
            ]
        }
    ],
    "nodes" : [
        {
            "mesh" : 4,
            "name" : "Body_low",
            "rotation" : [
                -8.146033536604591e-08,
                0.0,
                -0.0,
                1.0
            ],
            "scale" : [
                0.009999999776482582,
                0.009999999776482582,
                0.009999999776482582
            ]
        },
        {
            "mesh" : 0,
            "name" : "Left A",
            "rotation" : [
                -8.146033536604591e-08,
                0.0,
                -0.0,
                1.0
            ],
            "scale" : [
                0.009999999776482582,
                0.009999999776482582,
                0.009999999776482582
            ]
        },
        {
            "mesh" : 2,
            "name" : "Left B",
            "rotation" : [
                -8.146033536604591e-08,
                0.0,
                -0.0,
                1.0
            ],
            "scale" : [
                0.009999999776482582,
                0.009999999776482582,
                0.009999999776482582
            ]
        },
        {
            "mesh" : 3,
            "name" : "Right A",
            "rotation" : [
                -8.146033536604591e-08,
                0.0,
                -0.0,
                1.0
            ],
            "scale" : [
                0.009999999776482582,
                0.009999999776482582,
                0.009999999776482582
            ]
        },
        {
            "mesh" : 1,
            "name" : "Right B",
            "rotation" : [
                -8.146033536604591e-08,
                0.0,
                -0.0,
                1.0
            ],
            "scale" : [
                0.009999999776482582,
                0.009999999776482582,
                0.009999999776482582
            ]
        }
    ],
    "scene" : 0,
    "scenes" : [
        {
            "name" : "Scene",
            "nodes" : [
                4,
                3,
                2,
                1,
                0
            ]
        }
    ]
}
