{
    "accessors" : [
        {
            "bufferView" : 0,
            "componentType" : 5123,
            "count" : 13158,
            "max" : [
                8406
            ],
            "min" : [
                0
            ],
            "type" : "SCALAR"
        },
        {
            "bufferView" : 1,
            "componentType" : 5126,
            "count" : 8407,
            "max" : [
                0.16603899002075195,
                0.7632325291633606,
                0.8012962937355042
            ],
            "min" : [
                -0.1376892328262329,
                -1.0354541540145874,
                -0.8012962937355042
            ],
            "type" : "VEC3"
        },
        {
            "bufferView" : 2,
            "componentType" : 5126,
            "count" : 8407,
            "max" : [
                0.9993896484375,
                0.9869380593299866,
                0.99981689453125
            ],
            "min" : [
                -0.999176025390625,
                -1.0,
                -0.99981689453125
            ],
            "type" : "VEC3"
        },
        {
            "bufferView" : 3,
            "componentType" : 5126,
            "count" : 8407,
            "max" : [
                0.934378445148468,
                0.9998314181284513
            ],
            "min" : [
                0.00016858187154866755,
                0.0001685619354248047
            ],
            "type" : "VEC2"
        },
        {
            "bufferView" : 4,
            "componentType" : 5126,
            "count" : 8407,
            "max" : [
                0.0,
                1.0
            ],
            "min" : [
                0.0,
                1.0
            ],
            "type" : "VEC2"
        }
    ],
    "asset" : {
        "generator" : "Khronos Blender glTF 2.0 exporter",
        "version" : "2.0"
    },
    "bufferViews" : [
        {
            "buffer" : 0,
            "byteLength" : 26316,
            "byteOffset" : 0,
            "target" : 34963
        },
        {
            "buffer" : 0,
            "byteLength" : 100884,
            "byteOffset" : 26316,
            "target" : 34962
        },
        {
            "buffer" : 0,
            "byteLength" : 100884,
            "byteOffset" : 127200,
            "target" : 34962
        },
        {
            "buffer" : 0,
            "byteLength" : 67256,
            "byteOffset" : 228084,
            "target" : 34962
        },
        {
            "buffer" : 0,
            "byteLength" : 67256,
            "byteOffset" : 295340,
            "target" : 34962
        }
    ],
    "buffers" : [
        {
            "byteLength" : 362596,
            "uri" : "person1.bin"
        }
    ],
    "materials" : [
        {
            "name" : "Arm Right",
            "pbrMetallicRoughness" : {
                "baseColorFactor" : [
                    0.6400000190734865,
                    0.6400000190734865,
                    0.6400000190734865,
                    1.0
                ],
                "metallicFactor" : 0.0
            }
        }
    ],
    "meshes" : [
        {
            "name" : "Cube.001",
            "primitives" : [
                {
                    "attributes" : {
                        "NORMAL" : 2,
                        "POSITION" : 1,
                        "TEXCOORD_0" : 3,
                        "TEXCOORD_1" : 4
                    },
                    "indices" : 0,
                    "material" : 0
                }
            ]
        }
    ],
    "nodes" : [
        {
            "mesh" : 0,
            "name" : "Cube",
            "rotation" : [
                -8.146033536604591e-08,
                0.0,
                -0.0,
                1.0
            ]
        }
    ],
    "scene" : 0,
    "scenes" : [
        {
            "name" : "Scene",
            "nodes" : [
                0
            ]
        }
    ]
}
